<svg xmlns="http://www.w3.org/2000/svg" id="Capa_1" height="512" viewBox="0 0 512 512" width="512"><g><path d="m374.688 512h-281.24c-14.793 0-26.785-11.992-26.785-26.785v-458.43c.001-14.793 11.993-26.785 26.785-26.785h281.239c14.793 0 26.785 11.992 26.785 26.785v458.431c0 14.792-11.991 26.784-26.784 26.784z" fill="#b6c4cf"></path><path d="m374.688 0h-35.026c14.793 0 26.785 11.992 26.785 26.785v458.431c0 14.793-11.992 26.785-26.785 26.785h35.026c14.793 0 26.785-11.992 26.785-26.785v-458.431c-.001-14.793-11.993-26.785-26.785-26.785z" fill="#9facba"></path><path d="m101.69 421.344v-379.107c0-2.845 2.306-5.151 5.151-5.151h254.455c2.845 0 5.151 2.306 5.151 5.151v379.107c0 2.845-2.306 5.151-5.151 5.151h-254.455c-2.845 0-5.151-2.306-5.151-5.151z" fill="#596c76"></path><path d="m361.295 37.087h-35.042c2.845 0 5.151 2.306 5.151 5.151v379.107c0 2.845-2.306 5.151-5.151 5.151h35.042c2.845 0 5.151-2.306 5.151-5.151v-379.108c0-2.844-2.306-5.15-5.151-5.15z" fill="#465a61"></path><path d="m274.245 482.382h-80.354c-7.396 0-13.392-5.996-13.392-13.392 0-7.396 5.996-13.392 13.392-13.392h80.354c7.396 0 13.392 5.996 13.392 13.392 0 7.396-5.996 13.392-13.392 13.392z" fill="#f5f8f9"></path><g fill="#ffe177"><path d="m12.438 163.613h127.033c3.354 0 6.073-2.719 6.073-6.073v-42.453l18.759-12.639c1.489-1.003 1.489-3.194 0-4.197l-18.759-12.639v-42.452c0-3.354-2.719-6.073-6.073-6.073h-127.033c-3.354 0-6.073 2.719-6.073 6.073v114.38c0 3.354 2.719 6.073 6.073 6.073z"></path><path d="m499.562 163.613h-127.033c-3.354 0-6.073 2.719-6.073 6.073v42.453l-18.759 12.639c-1.489 1.003-1.489 3.194 0 4.197l18.759 12.639v42.453c0 3.354 2.719 6.073 6.073 6.073h127.033c3.354 0 6.073-2.719 6.073-6.073v-114.38c0-3.355-2.719-6.074-6.073-6.074z"></path><path d="m12.438 426.495h127.033c3.354 0 6.073-2.719 6.073-6.073v-42.453l18.759-12.639c1.489-1.003 1.489-3.194 0-4.197l-18.759-12.639v-42.453c0-3.354-2.719-6.073-6.073-6.073h-127.033c-3.354 0-6.073 2.719-6.073 6.073v114.38c0 3.355 2.719 6.074 6.073 6.074z"></path></g><path d="m100.057 134.439h-55.63c-3.414 0-6.181-2.767-6.181-6.181v-55.63c0-3.414 2.767-6.181 6.181-6.181h55.63c3.414 0 6.181 2.767 6.181 6.181v55.63c0 3.413-2.767 6.181-6.181 6.181z" fill="#26a6fe"></path><path d="m443.13 193.124 7.356 14.906c.863 1.748 2.531 2.96 4.46 3.24l16.45 2.39c4.859.706 6.799 6.677 3.283 10.104l-11.903 11.603c-1.396 1.361-2.033 3.322-1.704 5.243l2.81 16.383c.83 4.839-4.249 8.529-8.595 6.244l-14.713-7.735c-1.726-.907-3.787-.907-5.513 0l-14.713 7.735c-4.346 2.285-9.425-1.405-8.595-6.244l2.81-16.383c.33-1.922-.307-3.882-1.704-5.243l-11.903-11.603c-3.516-3.427-1.576-9.398 3.283-10.104l16.45-2.39c1.929-.28 3.597-1.492 4.46-3.24l7.356-14.906c2.174-4.403 8.452-4.403 10.625 0z" fill="#feb137"></path><path d="m68.683 395.501c2.216 1.723 5.271 1.72 7.483-.008l26.974-21.062c7.603-5.912 10.275-16.44 6.456-25.44-4.146-9.771-14.68-14.841-24.597-11.838-5.666 1.715-10.159 5.785-12.638 10.969-2.479-5.184-6.972-9.254-12.637-10.969-10.42-3.155-21.522 2.603-25.178 13.361-3 8.828.263 18.649 7.503 24.278z" fill="#fd4755"></path><path d="m214.214 260.6h-41.632c-18.847 0-34.126-15.279-34.126-34.126 0-18.847 15.279-34.126 34.126-34.126h41.632z" fill="#fe646f"></path><path d="m281.737 169.432-67.523 22.915v68.253l67.523 22.915c2.251.764 4.586-.91 4.586-3.286v-107.51c0-2.377-2.335-4.051-4.586-3.287z" fill="#b3dafe"></path><path d="m172.582 260.6c-.208 0-.414-.012-.621-.016v52.912c0 6.815 5.52 12.343 12.335 12.352h.357c6.828.01 12.368-5.524 12.368-12.352v-52.896z" fill="#0182fc"></path><g><path d="m322.621 234.603h-10.087c-4.268 0-7.726-3.459-7.726-7.726 0-4.268 3.459-7.726 7.726-7.726h10.087c4.268 0 7.726 3.459 7.726 7.726s-3.459 7.726-7.726 7.726z" fill="#fe646f"></path></g><g><path d="m314.016 199.791c-2.247 0-4.475-.975-6.002-2.854-2.69-3.312-2.187-8.178 1.125-10.869l7.133-5.795c3.314-2.69 8.179-2.186 10.869 1.125 2.69 3.312 2.187 8.178-1.125 10.869l-7.133 5.795c-1.432 1.162-3.156 1.729-4.867 1.729z" fill="#fe646f"></path></g><g><path d="m321.139 275.209c-1.711 0-3.434-.565-4.866-1.729l-7.133-5.794c-3.312-2.69-3.816-7.556-1.126-10.868s7.554-3.818 10.868-1.126l7.133 5.794c3.312 2.69 3.816 7.556 1.126 10.868-1.527 1.88-3.755 2.855-6.002 2.855z" fill="#fe646f"></path></g></g></svg>